<?xml version="1.0" encoding="utf-8"?>
<!-- Generator: Adobe Illustrator 21.0.0, SVG Export Plug-In . SVG Version: 6.00 Build 0)  -->
<svg version="1.1" id="Calque_1" xmlns="http://www.w3.org/2000/svg" xmlns:xlink="http://www.w3.org/1999/xlink" x="0px" y="0px"
	 viewBox="0 0 188.9 162.1" style="enable-background:new 0 0 188.9 162.1;" xml:space="preserve">
<style type="text/css">
	.st0{fill:#FFFFFF;stroke:#000000;stroke-miterlimit:10;}
	.st1{fill:none;stroke:#000000;stroke-miterlimit:10;}
</style>
<rect x="59.4" y="15.2" transform="matrix(0.7071 -0.7071 0.7071 0.7071 -7.9147 81.5189)" class="st0" width="70.2" height="70.2"/>
<rect x="59.4" y="21.4" transform="matrix(0.7071 -0.7071 0.7071 0.7071 -12.2605 83.319)" class="st1" width="70.2" height="70.2"/>
<rect x="59.4" y="27.5" transform="matrix(0.7071 -0.7071 0.7071 0.7071 -16.6062 85.1191)" class="st1" width="70.2" height="70.2"/>
<g>
	<path d="M2.9,130c0.6,0,1.1,0.3,1.4,0.8c4.2,7,8.2,13.7,11.7,20.1v-20.2c0-0.2,0.1-0.3,0.2-0.5c0.1-0.1,0.3-0.2,0.5-0.2H17
		c0.2,0,0.4,0.1,0.5,0.2c0.1,0.1,0.2,0.3,0.2,0.5V152c0,0.4-0.1,0.8-0.4,1s-0.6,0.3-1.1,0.3c-0.5,0-0.8-0.2-1.2-0.7L3.4,132.4v20.1
		c0,0.2-0.1,0.3-0.2,0.5s-0.3,0.2-0.5,0.2H2.3c-0.2,0-0.3-0.1-0.4-0.2c-0.1-0.1-0.2-0.3-0.2-0.5v-21.2C1.7,130.5,2.1,130,2.9,130z"
		/>
	<path d="M23.2,130.1h11.5c0.2,0,0.3,0.1,0.5,0.2c0.1,0.1,0.2,0.3,0.2,0.5v0.3c0,0.2-0.1,0.4-0.2,0.5s-0.3,0.2-0.5,0.2H23.5v19.9
		h11.2c0.2,0,0.3,0.1,0.5,0.2s0.2,0.3,0.2,0.5v0.3c0,0.2-0.1,0.3-0.2,0.5s-0.3,0.2-0.5,0.2H23.1c-0.5,0-0.9-0.1-1-0.3
		c-0.2-0.2-0.2-0.6-0.2-1v-20.5c0-0.4,0.1-0.8,0.3-1S22.7,130.1,23.2,130.1z M25.5,140.4h7.1c0.2,0,0.4,0.1,0.5,0.2
		c0.1,0.1,0.2,0.3,0.2,0.5v0.3c0,0.4-0.2,0.7-0.7,0.7h-7.1c-0.4,0-0.7-0.2-0.7-0.7v-0.3c0-0.2,0.1-0.3,0.2-0.5
		C25.1,140.5,25.3,140.4,25.5,140.4z"/>
	<path d="M37.1,130.1h14.7c0.2,0,0.4,0.1,0.5,0.2c0.1,0.1,0.2,0.3,0.2,0.5v0.4c0,0.4-0.2,0.6-0.7,0.6H37.1c-0.4,0-0.7-0.2-0.7-0.6
		v-0.4c0-0.2,0.1-0.3,0.2-0.5C36.8,130.2,36.9,130.1,37.1,130.1z M44.3,132.6h0.3c0.4,0,0.7,0.2,0.7,0.6v19.3c0,0.2-0.1,0.3-0.2,0.5
		c-0.1,0.1-0.3,0.2-0.5,0.2h-0.3c-0.2,0-0.4-0.1-0.5-0.2c-0.1-0.1-0.2-0.3-0.2-0.5v-19.3C43.6,132.8,43.8,132.6,44.3,132.6z"/>
	<path d="M69.4,130.1h0.4c0.4,0,0.7,0.2,0.7,0.7c0,0.1,0,0.2,0,0.2l-7.5,21.4c-0.2,0.6-0.6,0.9-1.3,0.9c-0.7,0-1.1-0.3-1.3-0.9
		L52.7,131c0-0.1,0-0.1,0-0.2c0-0.4,0.2-0.7,0.7-0.7h0.4c0.3,0,0.5,0.1,0.6,0.4l7.2,20.6l7.2-20.6C68.9,130.2,69.1,130.1,69.4,130.1
		z"/>
	<path d="M76.8,130.9c0.8-0.3,1.5-0.6,2.1-0.6c0.6-0.1,1.2-0.1,1.8-0.1s1.2,0,1.9,0.1c0.6,0.1,1.3,0.3,2.1,0.7
		c0.8,0.4,1.5,0.8,2,1.4c0.6,0.6,1.1,1.4,1.5,2.4c0.4,1,0.6,2.2,0.6,3.5v6.7c0,1.4-0.2,2.6-0.6,3.7s-0.9,1.9-1.5,2.4
		c-0.6,0.6-1.3,1-2,1.4c-1.2,0.5-2.5,0.8-3.9,0.8c-1.4,0-2.6-0.2-3.6-0.7c-1-0.5-1.8-1-2.4-1.6c-0.6-0.6-1.1-1.4-1.5-2.4
		c-0.4-1-0.6-2.2-0.6-3.6v-6.7c0-1.4,0.2-2.6,0.6-3.6c0.4-1,0.9-1.8,1.5-2.4C75.3,131.7,76,131.2,76.8,130.9z M83.8,132.4
		c-0.6-0.3-1.2-0.5-1.6-0.5c-0.5-0.1-1-0.1-1.5-0.1s-1,0-1.5,0.1c-0.5,0.1-1,0.3-1.7,0.5c-0.6,0.3-1.2,0.6-1.6,1.1
		c-0.5,0.5-0.9,1.1-1.2,1.9c-0.3,0.8-0.5,1.8-0.5,3v6.5c0,1.1,0.2,2.1,0.5,3c0.3,0.9,0.7,1.5,1.2,2c0.5,0.5,1,0.9,1.6,1.1
		c0.6,0.3,1.2,0.5,1.7,0.6s1,0.1,1.5,0.1c0.5,0,1,0,1.5-0.1c0.5-0.1,1-0.3,1.7-0.6c0.6-0.3,1.2-0.7,1.6-1.1c0.5-0.5,0.9-1.1,1.2-2
		c0.3-0.9,0.5-1.8,0.5-3v-6.5c0-1.1-0.2-2.1-0.5-3c-0.3-0.8-0.7-1.5-1.2-1.9C84.9,133,84.4,132.6,83.8,132.4z"/>
	<path d="M93.3,130.1h0.3c0.2,0,0.3,0.1,0.5,0.2c0.1,0.1,0.2,0.3,0.2,0.5v20.8h11c0.4,0,0.6,0.2,0.6,0.7v0.3c0,0.2-0.1,0.3-0.2,0.5
		c-0.1,0.1-0.3,0.2-0.4,0.2H94c-0.9,0-1.4-0.5-1.4-1.4v-21c0-0.2,0.1-0.3,0.2-0.5C93,130.2,93.1,130.1,93.3,130.1z"/>
	<path d="M123.3,130.1h0.3c0.2,0,0.3,0.1,0.5,0.2c0.1,0.1,0.2,0.3,0.2,0.5v14.2c0,1.6-0.3,3-0.8,4.1c-0.5,1.2-1.2,2-2,2.6
		c-1.5,1.1-3.1,1.6-4.7,1.6h-0.4c-1.6,0-3.2-0.5-4.8-1.6c-0.8-0.6-1.5-1.4-2-2.6c-0.5-1.2-0.8-2.5-0.8-4.1v-14.2
		c0-0.2,0.1-0.3,0.2-0.5c0.1-0.1,0.3-0.2,0.5-0.2h0.3c0.2,0,0.4,0.1,0.5,0.2c0.1,0.1,0.2,0.3,0.2,0.5v14.2c0,1.3,0.2,2.4,0.6,3.3
		c0.4,0.9,1,1.6,1.6,2.1c1.2,0.8,2.4,1.2,3.7,1.3h0.3c1.3,0,2.5-0.5,3.7-1.3c0.7-0.4,1.2-1.1,1.6-2.1c0.4-0.9,0.6-2.1,0.6-3.3v-14.2
		c0-0.2,0.1-0.3,0.2-0.5C122.9,130.2,123.1,130.1,123.3,130.1z"/>
	<path d="M126.8,130.1h14.7c0.2,0,0.4,0.1,0.5,0.2c0.1,0.1,0.2,0.3,0.2,0.5v0.4c0,0.4-0.2,0.6-0.7,0.6h-14.7c-0.4,0-0.7-0.2-0.7-0.6
		v-0.4c0-0.2,0.1-0.3,0.2-0.5C126.5,130.2,126.6,130.1,126.8,130.1z M133.9,132.6h0.3c0.4,0,0.7,0.2,0.7,0.6v19.3
		c0,0.2-0.1,0.3-0.2,0.5c-0.1,0.1-0.3,0.2-0.5,0.2h-0.3c-0.2,0-0.4-0.1-0.5-0.2c-0.1-0.1-0.2-0.3-0.2-0.5v-19.3
		C133.3,132.8,133.5,132.6,133.9,132.6z"/>
	<path d="M145.6,130.1h0.3c0.2,0,0.3,0.1,0.5,0.2c0.1,0.1,0.2,0.3,0.2,0.5v21.8c0,0.2-0.1,0.3-0.2,0.5c-0.1,0.1-0.3,0.2-0.5,0.2
		h-0.3c-0.2,0-0.4-0.1-0.5-0.2s-0.2-0.3-0.2-0.5v-21.8c0-0.2,0.1-0.3,0.2-0.5C145.2,130.2,145.4,130.1,145.6,130.1z"/>
	<path d="M154.9,130.9c0.8-0.3,1.5-0.6,2.1-0.6c0.6-0.1,1.2-0.1,1.8-0.1s1.2,0,1.9,0.1c0.6,0.1,1.3,0.3,2.1,0.7
		c0.8,0.4,1.5,0.8,2,1.4c0.6,0.6,1.1,1.4,1.5,2.4c0.4,1,0.6,2.2,0.6,3.5v6.7c0,1.4-0.2,2.6-0.6,3.7s-0.9,1.9-1.5,2.4
		c-0.6,0.6-1.3,1-2,1.4c-1.2,0.5-2.5,0.8-3.9,0.8c-1.4,0-2.6-0.2-3.6-0.7c-1-0.5-1.8-1-2.4-1.6c-0.6-0.6-1.1-1.4-1.5-2.4
		c-0.4-1-0.6-2.2-0.6-3.6v-6.7c0-1.4,0.2-2.6,0.6-3.6c0.4-1,0.9-1.8,1.5-2.4C153.4,131.7,154.1,131.2,154.9,130.9z M161.9,132.4
		c-0.6-0.3-1.2-0.5-1.6-0.5c-0.5-0.1-1-0.1-1.5-0.1s-1,0-1.5,0.1c-0.5,0.1-1,0.3-1.7,0.5c-0.6,0.3-1.2,0.6-1.6,1.1
		c-0.5,0.5-0.9,1.1-1.2,1.9c-0.3,0.8-0.5,1.8-0.5,3v6.5c0,1.1,0.2,2.1,0.5,3c0.3,0.9,0.7,1.5,1.2,2c0.5,0.5,1,0.9,1.6,1.1
		c0.6,0.3,1.2,0.5,1.7,0.6s1,0.1,1.5,0.1c0.5,0,1,0,1.5-0.1c0.5-0.1,1-0.3,1.7-0.6c0.6-0.3,1.2-0.7,1.6-1.1c0.5-0.5,0.9-1.1,1.2-2
		c0.3-0.9,0.5-1.8,0.5-3v-6.5c0-1.1-0.2-2.1-0.5-3c-0.3-0.8-0.7-1.5-1.2-1.9C163.1,133,162.5,132.6,161.9,132.4z"/>
	<path d="M172,130c0.6,0,1.1,0.3,1.4,0.8c4.2,7,8.2,13.7,11.7,20.1v-20.2c0-0.2,0.1-0.3,0.2-0.5c0.1-0.1,0.3-0.2,0.5-0.2h0.3
		c0.2,0,0.4,0.1,0.5,0.2c0.1,0.1,0.2,0.3,0.2,0.5V152c0,0.4-0.1,0.8-0.4,1s-0.6,0.3-1.1,0.3s-0.8-0.2-1.2-0.7l-11.7-20.1v20.1
		c0,0.2-0.1,0.3-0.2,0.5s-0.3,0.2-0.5,0.2h-0.4c-0.2,0-0.3-0.1-0.4-0.2s-0.2-0.3-0.2-0.5v-21.2C170.8,130.5,171.2,130,172,130z"/>
</g>
</svg>
